<svg xmlns="http://www.w3.org/2000/svg" xmlns:xlink="http://www.w3.org/1999/xlink" version="1.1" width="1000" height="1000" viewBox="0 0 1000 1000" xml:space="preserve">
<desc>Created with Fabric.js 3.5.0</desc>
<defs>
</defs>
<rect x="0" y="0" width="100%" height="100%" fill="transparent"/>
<g transform="matrix(-1.7537 0 0 -1.5537 500.0043 227.6639)" id="269912">
<path style="stroke: none; stroke-width: 1; stroke-dasharray: none; stroke-linecap: butt; stroke-dashoffset: 0; stroke-linejoin: miter; stroke-miterlimit: 4; is-custom-font: none; font-file-url: none; fill: rgb(0,0,0); fill-rule: nonzero; opacity: 1;" vector-effect="non-scaling-stroke" transform=" translate(-159.9, -256.05)" d="M 143 352.3 L 7 216.3 c -9.4 -9.4 -9.4 -24.6 0 -33.9 l 22.6 -22.6 c 9.4 -9.4 24.6 -9.4 33.9 0 l 96.4 96.4 l 96.4 -96.4 c 9.4 -9.4 24.6 -9.4 33.9 0 l 22.6 22.6 c 9.4 9.4 9.4 24.6 0 33.9 l -136 136 c -9.2 9.4 -24.4 9.4 -33.8 0 z" stroke-linecap="round"/>
</g>
<g transform="matrix(-1.7505 0 0 1.5586 499.9925 740.1701)" id="346190">
<path style="stroke: none; stroke-width: 1; stroke-dasharray: none; stroke-linecap: butt; stroke-dashoffset: 0; stroke-linejoin: miter; stroke-miterlimit: 4; is-custom-font: none; font-file-url: none; fill: rgb(0,0,0); fill-rule: nonzero; opacity: 1;" vector-effect="non-scaling-stroke" transform=" translate(-159.9, -256.05)" d="M 143 352.3 L 7 216.3 c -9.4 -9.4 -9.4 -24.6 0 -33.9 l 22.6 -22.6 c 9.4 -9.4 24.6 -9.4 33.9 0 l 96.4 96.4 l 96.4 -96.4 c 9.4 -9.4 24.6 -9.4 33.9 0 l 22.6 22.6 c 9.4 9.4 9.4 24.6 0 33.9 l -136 136 c -9.2 9.4 -24.4 9.4 -33.8 0 z" stroke-linecap="round"/>
</g>
</svg>